
<global>
amp_veltrack=0
ampeg_release=0.35
</global>

<group>
group_label=PP
lpc_hicc1=42
lpc_locc1=0

<region>
hikey=a3
hivel=127
lokey=g#3
loop_end=265805
loop_mode=loop_continuous
loop_start=95548
loop_xfade=51077
lovel=0
lpc=NCIrQWVL7MGgRApCHsudwYETUUCnKbY+oVAlQMefEsBOSgw9tMO3P7aHH8DS/w1AbpoPPuTINMDUiaNAiAK7wPXmXUAOkHy+TadqvhRZF7+Oveq+rOc/QBwiTsCwPpM/
lpc_rms=-43.61
pitch_keycenter=a3
sample=Soloviolin1_trill_dim5th_PP_A3.opus
</region>

<region>
hikey=a4
hivel=127
lokey=g#4
loop_end=292874
loop_mode=loop_continuous
loop_start=105278
loop_xfade=56278
lovel=0
lpc=8lvcQPLCgsGt55BBDltRwXpFBkE/vunAd0TDQN3ZSsDWSLk9iABEQI6lmMCe1opA5OAuwNNSkT21F1ZABHuMwLcTZUDnhCTANV7yP5TNCMAsoCJAYh8OwPqyMz9mDMo+
lpc_rms=-44.91
pitch_keycenter=a4
sample=Soloviolin1_trill_dim5th_PP_A4.opus
</region>

<region>
hikey=a5
hivel=127
lokey=g#5
loop_end=282772
loop_mode=loop_continuous
loop_start=111742
loop_xfade=59734
lovel=0
lpc=zVL1QNVZTMFJ4TdBGt6vwA0k7D+tSJU+PP75PQfKIb+rEt8/krtQvqQYj74QNwRAq7OGv2VaVz+Ic50/89Skv0eIN0DChjLAj/YhQBGQwb9HuII/AtfKPonNlL4UZp4/
lpc_rms=-42.27
pitch_keycenter=a5
sample=Soloviolin1_trill_dim5th_PP_A5.opus
</region>

<region>
hikey=a6
hivel=127
lokey=g#6
loop_end=280083
loop_mode=loop_continuous
loop_start=113947
loop_xfade=60912
lovel=0
lpc=Cbg6QTesW8ECFR9BUO3bvzUi1T/IFQLAIZycQItmM7+qr2a/0suUv2KmtD6WT8A/8w3wPoza9sCJo5JAjHKhP7filsAH7PI/cZHQP1RPjcDNzgdACXGsv6gEc0Ds2i2/
lpc_rms=-43.80
pitch_keycenter=a6
sample=Soloviolin1_trill_dim5th_PP_A6.opus
</region>

<region>
hikey=b3
hivel=127
lokey=a#3
loop_end=280954
loop_mode=loop_continuous
loop_start=112529
loop_xfade=60155
lovel=0
lpc=qqt0QRKGLsISHFRC+vb8wUxwxEACH0Q++SaQQIZ/p8DzUBFACYtbP2rTb8Ag+WVAt7CMvghmYcCDNdNAKCEAwaURw0A1PBXALuNzP9pTJ78M5I6/0NhnQLxAZ8D08sg/
lpc_rms=-42.07
pitch_keycenter=b3
sample=Soloviolin1_trill_dim5th_PP_B3.opus
</region>

<region>
hikey=b4
hivel=127
lokey=a#4
loop_end=280604
loop_mode=loop_continuous
loop_start=96846
loop_xfade=51771
lovel=0
lpc=68MjQURxwsELm9VBykeFwRAH+EDiiuDADwnhQHyEiMB9Hf8/DC+3PnyoLcD0bWNA4WpfwEq+HT+IezRAMGk9wKdfrT+B+RM9L+ZHP9RIib8oVG8/QxRSv+GNWD2YQTY/
lpc_rms=-40.72
pitch_keycenter=b4
sample=Soloviolin1_trill_dim5th_PP_B4.opus
</region>

<region>
hikey=b5
hivel=127
lokey=a#5
loop_end=271889
loop_mode=loop_continuous
loop_start=106512
loop_xfade=56938
lovel=0
lpc=Sr/tQBBXFsGuy+9AYVBXwNt5xT956Y+/qVAfQNZFEcBw4qY/BFm2P7lEwr/KSUQ/j8qTPz/P6L57OCc+CmjAP+gBDr9HXrS/ZKQ6QHc5AcBZQXE/1NudvMvbBUCdNzzA
lpc_rms=-42.68
pitch_keycenter=b5
sample=Soloviolin1_trill_dim5th_PP_B5.opus
</region>

<region>
hikey=b6
hivel=127
lokey=a#6
loop_end=274100
loop_mode=loop_continuous
loop_start=114597
loop_xfade=61260
lovel=0
lpc=V2D3QDozLcFThwhBFZRBwIUflj8+kjw/bjhpvkFJuT/VQWvA8CxqQK/KCzxzRLK//N1IwOUWykCyHpLAMfcGQAiKDb/cFYm/8328PxHyw78K+JNATkGXwBSSLUDdlJ6/
lpc_rms=-48.26
pitch_keycenter=B6
sample=Soloviolin1_trill_dim5th_PP_B6.opus
</region>

<region>
hikey=c#4
hivel=127
lokey=c4
loop_end=290306
loop_mode=loop_continuous
loop_start=97573
loop_xfade=52159
lovel=0
lpc=Yz17QXcmNMKrDmFC7FUWwhEHI0FlGxhAUHOWvwzbFsBn+2RAy7jWvngowsDkxARB8i5SwN1TicDHWChBdYhIweu/FUGYCkfA7tJNPzXx/b801bw/ssMtP98BFMCr6qY/
lpc_rms=-40.32
pitch_keycenter=c#4
sample=Soloviolin1_trill_dim5th_PP_C#4.opus
</region>

<region>
hikey=c#5
hivel=127
lokey=c5
loop_end=289312
loop_mode=loop_continuous
loop_start=110001
loop_xfade=58803
lovel=0
lpc=EazDQCO4X8EGxIBBJGlDwRmfAEHQ2rfALc5XQD9ai7+QhRK/KWYfQNgFaMCgujdAyZ2Nv5dukb/B8kZAXikdwPT3lz+yYAW/5s0QP0c0Y77hq2++O/RVP6SqsL+koIc/
lpc_rms=-44.89
pitch_keycenter=c#5
sample=Soloviolin1_trill_dim5th_PP_C#5.opus
</region>

<region>
hikey=c#6
hivel=127
lokey=c6
loop_end=279774
loop_mode=loop_continuous
loop_start=110891
loop_xfade=59278
lovel=0
lpc=FtcJQfffW8E3Mz5ByN/gwNLvlEDzmCvAMbQGQFmizb8yeMg/Z41Av5alZz9JKR2/tmmJPz2/U7+kD6I/nwSxv7qt6z83XNa//yoGQMXWGcCQK45AE9YcwaWL/0CiYyrA
lpc_rms=-48.10
pitch_keycenter=c#6
sample=Soloviolin1_trill_dim5th_PP_C#6.opus
</region>

<region>
hikey=d#4
hivel=127
lokey=d4
loop_end=280281
loop_mode=loop_continuous
loop_start=113378
loop_xfade=60608
lovel=0
lpc=IbEdQbbD28GL1ApCAN6+waV3BEF+yjLA1AiWQDmGi8D3DeM/IhKqP7m8jMDLM75AJTtUwN704L8QDqFAV4SRwB2yOUBaYPG/59WnPzVfML8POVu9PFhXPqn7pr0TEfg9
lpc_rms=-45.77
pitch_keycenter=d#4
sample=Soloviolin1_trill_dim5th_PP_D#4.opus
</region>

<region>
hikey=d#5
hivel=127
lokey=d5
loop_end=270616
loop_mode=loop_continuous
loop_start=115952
loop_xfade=61984
lovel=0
lpc=iB+yQOh+P8E0M05BhF4VwceezUBA6bXANiymQJS9Q8DgYKc/8PZ/P+kbAMAdHew/uhw0v1ugM7+dM/M/aWu+vxFijj8g97a/aUzmP+W9LL8R/0S/jQGzPq7Ybz8/RxK/
lpc_rms=-46.84
pitch_keycenter=d#5
sample=Soloviolin1_trill_dim5th_PP_D#5.opus
</region>

<region>
hikey=d#6
hivel=127
lokey=d6
loop_end=277205
loop_mode=loop_continuous
loop_start=110307
loop_xfade=58966
lovel=0
lpc=y91ZQcO4w8HXuqZBrSQ2wVsW+UDtnnLAYBWJQLKEWsDqwB5AnK6qPmLVX79YbHo/bcmIP7Reo79dyZs/1EDWPJAysj913QjAAitdQOZuV8Fgf5dBK3M8wZhek0D2uyHA
lpc_rms=-44.92
pitch_keycenter=d#6
sample=Soloviolin1_trill_dim5th_PP_D#6.opus
</region>

<region>
hikey=f4
hivel=127
lokey=e4
loop_end=271451
loop_mode=loop_continuous
loop_start=109745
loop_xfade=58666
lovel=0
lpc=bkcDQe+9qsE269BBPvqPwZGp3UC2KELAI71gQNLyZ8BoHRxAJD8xvwAbzr+hgyJA7HPHv1+5mL8A14RAfGehwCxncUDRC5S/V3EmPj9Ihr5Wwhw9dfrhPlXyC7+2jK4+
lpc_rms=-46.61
pitch_keycenter=f4
sample=Soloviolin1_trill_dim5th_PP_F4.opus
</region>

<region>
hikey=f5
hivel=127
lokey=e5
loop_end=269027
loop_mode=loop_continuous
loop_start=116415
loop_xfade=62231
lovel=0
lpc=lj9SQGagosCxyWNAGbk8v4Ehzj5NyH+/Tf6IP+uHSr7o84u+td5cPgRyPL7x+Ek+wyRVvXk6F77veK4/HSjxv0a0rT9yK7i9QSnHPUwTDL/8JrA/Yhkfv1rowb2BnFg+
lpc_rms=-49.93
pitch_keycenter=f5
sample=Soloviolin1_trill_dim5th_PP_F5.opus
</region>

<region>
hikey=f6
hivel=127
lokey=e6
loop_end=273488
loop_mode=loop_continuous
loop_start=117327
loop_xfade=62719
lovel=0
lpc=XkPnQOVFJ8G3VwBBC7IswGmgOECD0zbAlNZVQCC1sL/R7gZA5qJ/v2C0TD8gDK2/9yKdP5OXrz56QXY+Ae3qv2KWHkBk5d/AdXADQY7JtsCN+Lc/f5nSv7bEH0DlMTfA
lpc_rms=-47.78
pitch_keycenter=f6
sample=Soloviolin1_trill_dim5th_PP_F6.opus
</region>

<region>
hivel=127
key=g3
loop_end=272518
loop_mode=loop_continuous
loop_start=97961
loop_xfade=52367
lovel=0
lpc=9bdWQT0/FcK7pzFClY7TwSg9kkAkN84/SAvjPw/gMMD1XeE/KDWfvrE7TcCzS51A98uyv4dOVcBGmsRAW/HbwJBOxUAIpnXAgnHTP8iEmL7jOtS/oBFiQFr7VMB7Ja8/
lpc_rms=-42.98
offset=7877
sample=Soloviolin1_trill_dim5th_PP_G3.opus
</region>

<region>
hikey=g4
hivel=127
lokey=f#4
loop_end=283313
loop_mode=loop_continuous
loop_start=98578
loop_xfade=52696
lovel=0
lpc=B1IlQQyD68ErNRhCvoLYwVsnIEFtl0zAk7iUQNtrocC8FCZAUHkSPzf8P8B4KlRA2yF5vzSDMsDA6sVAiK/lwNI8qEB4ERzAvQFiPz69QzxwHQDAOXWAQHCaecDh9ek/
lpc_rms=-43.21
pitch_keycenter=g4
sample=Soloviolin1_trill_dim5th_PP_G4.opus
</region>

<region>
hikey=g5
hivel=127
lokey=f#5
loop_end=284856
loop_mode=loop_continuous
loop_start=95570
loop_xfade=51088
lovel=0
lpc=qmN8QDpC1sBw87dAZPESwNmkCz9H9kO+9FmRP+Iz+r+pSLw/LcCHPx0L679EqM0/r3oLv7+eIL/RAvM/H86dv5HLJj95mSK+T/YUvnI6UD+QVwm+wZ2vPuL3cb/4s1M/
lpc_rms=-45.15
pitch_keycenter=g5
sample=Soloviolin1_trill_dim5th_PP_G5.opus
</region>

<region>
hikey=g6
hivel=127
lokey=f#6
loop_end=273047
loop_mode=loop_continuous
loop_start=110518
loop_xfade=59079
lovel=0
lpc=P7nhQNqjJ8GUrAhBLF+GwNOEbUB7SirAIg5IQA1QT7+PV1G+y6R3PxqJjr/xpn8/0dBAPcGCqb2PLLk/kOXXwAkp8kDljYLAEqOVP3P3Zr8R50Y/ZC+Hv4ALXr/PyKU/
lpc_rms=-48.73
pitch_keycenter=g6
sample=Soloviolin1_trill_dim5th_PP_G6.opus
</region>
</group>

<group>
group_label=MF
lpc_hicc1=84
lpc_locc1=43

<region>
hikey=a3
hivel=127
lokey=g#3
loop_end=264044
loop_mode=loop_continuous
loop_start=94915
loop_xfade=50738
lovel=0
lpc=qFscQVAU3MG3fgxCTivKwaC2IkF4s1nAJC5vQJcKmcD0cpRAJW1dwIoIqj/vTgw/vRw6Pu3P+78L/j1AkJ+RwIla0kDHJLvAl8EAQL0cJj8Ev78/R5GgwOW+kEDyCrC/
lpc_rms=-35.15
pitch_keycenter=a3
sample=Soloviolin1_trill_dim5th_MF_A3.opus
</region>

<region>
hikey=a4
hivel=127
lokey=g#4
loop_end=258206
loop_mode=loop_continuous
loop_start=92816
loop_xfade=49617
lovel=0
lpc=A4vDQGyGWcGhflpBu/cFwX98eUDWxjfApOE3QMCwGcAg57c/gTVgPtXxJb+tJd+++tTHPxjtC8DU20JAsuoswBsGvD8Ie7a+Diw9v4TggD+cFRa/00gGP93uab9ZLkc/
lpc_rms=-31.75
pitch_keycenter=a4
sample=Soloviolin1_trill_dim5th_MF_A4.opus
</region>

<region>
hikey=a5
hivel=127
lokey=g#5
loop_end=259579
loop_mode=loop_continuous
loop_start=93310
loop_xfade=49880
lovel=0
lpc=h5G9QKm5BsHEVM5Azbrrv0xqSr7UYAI+aeMpP5B8LL+quK4/HFiAPqLBvD2PdHo/u1GJPEznLD9Xnys/iuBQvjrOjT/cIjO/fw+hPiGRVr8OvbM/nQuJvSkiL78xJ/o/
lpc_rms=-33.04
pitch_keycenter=a5
sample=Soloviolin1_trill_dim5th_MF_A5.opus
</region>

<region>
hikey=a6
hivel=127
lokey=g#6
loop_end=285813
loop_mode=loop_continuous
loop_start=95319
loop_xfade=50954
lovel=0
lpc=MFRFQRJ6GMFgUAFBhSQTPj3SjUAafXO/b0O0QJ4Wgz8TvJVApjKHwBVtAEA0YJpA9aoJvwtKucCVtTxAgTGLP/BNBMAGlIC/ajLXP+BXacBt4gJA3Z+mwEaTz0DcEIu/
lpc_rms=-30.55
pitch_keycenter=a6
sample=Soloviolin1_trill_dim5th_MF_A6.opus
</region>

<region>
hikey=b3
hivel=127
lokey=a#3
loop_end=257810
loop_mode=loop_continuous
loop_start=92674
loop_xfade=49540
lovel=0
lpc=k1xRQdPHCcJsXRhC+BKfwbIo9z/p5tY/ARmOP3KU57+fqnM/uXbPPsGUOMBoVG1AOTTmv0olrr9++Y5A2QO5wHivnUAQJ++/IyASv3uTwj9OUMG//nG2PwjBsr9tQlI/
lpc_rms=-31.05
pitch_keycenter=b3
sample=Soloviolin1_trill_dim5th_MF_B3.opus
</region>

<region>
hikey=b4
hivel=127
lokey=a#4
loop_end=266937
loop_mode=loop_continuous
loop_start=95955
loop_xfade=51294
lovel=0
lpc=xEADQYY9j8F78JFBoMo3wfJK10BED9XAyCC4QCYYXcDgnTBAjQMIwOzWHj8AiZw+3gHzvmbssL/e+mBAerJcwH6SOkBHaQDAEuClP73BMr8H05k/6amnv/GMlz4B3Qo/
lpc_rms=-30.01
pitch_keycenter=b4
sample=Soloviolin1_trill_dim5th_MF_B4.opus
</region>

<region>
hikey=b5
hivel=127
lokey=a#5
loop_end=277640
loop_mode=loop_continuous
loop_start=113757
loop_xfade=60811
lovel=0
lpc=GkmtQAYu0MBV1a9Ael3zv0WYAz/E09k+f/eeP6Wwfr8c3Mg/ZSIjPmaB1r31L0c/3fOFPqJM8z7F+uM+maMFP+sTRT9rF6q/8i0WQHLRh78meL8+P7SQPx+CKT/Mqqm/
lpc_rms=-36.28
pitch_keycenter=b5
sample=Soloviolin1_trill_dim5th_MF_B5.opus
</region>

<region>
hikey=b6
hivel=127
lokey=a#6
loop_end=284563
loop_mode=loop_continuous
loop_start=102291
loop_xfade=54681
lovel=0
lpc=TQ0TQX42GsEqfhpBA/6RvyAkJ0DXLOW9LLUOQNq3W0AHdKDAT15XQNl+lUC3fMTAd9eOv7svyEBPAmHAZlgKPqiv4z+mW4i+kKUAQPYfXsD3mxhBFhStwBEDJkAWkgNA
lpc_rms=-34.85
pitch_keycenter=B6
sample=Soloviolin1_trill_dim5th_MF_B6.opus
</region>

<region>
hikey=c#4
hivel=127
lokey=c4
loop_end=261929
loop_mode=loop_continuous
loop_start=94155
loop_xfade=50332
lovel=0
lpc=QndcQdU5FMLWDClCgUvPwSL5CEEI0R7AQ9oLQJ06DMCfDgRA/Y66Ppc3msDoZb5AnNYswCcP279VHcNAXtADwZjwzUC4UCbAsW2kP5vNfr+f5bC/3dhaQON/SMCQo6g/
lpc_rms=-29.51
pitch_keycenter=c#4
sample=Soloviolin1_trill_dim5th_MF_C#4.opus
</region>

<region>
hikey=c#5
hivel=127
lokey=c5
loop_end=271291
loop_mode=loop_continuous
loop_start=97520
loop_xfade=52131
lovel=0
lpc=G1aeQE0eIcFlSyNBaUzewJTMeEBfGRLAK/nCP9Jlt7/4O8Y/YvhNv74iAz6r0AW/nBifP3u0HMCnWYFAS4FswAT7QUCsNyTAyhnQP8ZQ4r5BACo9/qItPutQeL5ZaLQ+
lpc_rms=-34.37
pitch_keycenter=c#5
sample=Soloviolin1_trill_dim5th_MF_C#5.opus
</region>

<region>
hikey=c#6
hivel=127
lokey=c6
loop_end=262508
loop_mode=loop_continuous
loop_start=94363
loop_xfade=50443
lovel=0
lpc=Gj7HQIQ38cDWfLRA0ZgAwFFcAkClfXO/Ed1BQIjJk7/+4oo/m8+PPzg1yz4ef5Q/a4IEP30NUD+rcWs/qaHMvmV3tj/xNBg/rFN3P3so4L6X8ipAXRCQwDsUWkC+cHw9
lpc_rms=-35.66
pitch_keycenter=c#6
sample=Soloviolin1_trill_dim5th_MF_C#6.opus
</region>

<region>
hikey=d#4
hivel=127
lokey=d4
loop_end=261452
loop_mode=loop_continuous
loop_start=93983
loop_xfade=50240
lovel=0
lpc=jIYLQax9tcHrFs1Bqmpwwe8qhUAXDADAUBAwQK0Mab/S+Ia/4HgGQAxYVsAGfpJAiMVVwFWZ3r680oBAXrSRwFq7H0Bjp6q+/EWmvkh5iL64ryY/pIHCvm0H1L3Oeas+
lpc_rms=-33.38
pitch_keycenter=d#4
sample=Soloviolin1_trill_dim5th_MF_D#4.opus
</region>

<region>
hikey=d#5
hivel=127
lokey=d5
loop_end=265535
loop_mode=loop_continuous
loop_start=95451
loop_xfade=51025
lovel=0
lpc=ZB6wQPIQLcGN6SlBOqTXwP50hkC4mnLA20dgQPr+EMC4yfY/32ZRvy/Rsz6Z574+xmyPPHEZU79bFyZAdIcbwG/txj+WnIu/X8CHPyl/Cb96PiA+HUoUv3++mz8tf0C+
lpc_rms=-33.57
pitch_keycenter=d#5
sample=Soloviolin1_trill_dim5th_MF_D#5.opus
</region>

<region>
hikey=d#6
hivel=127
lokey=d6
loop_end=257197
loop_mode=loop_continuous
loop_start=92453
loop_xfade=49423
lovel=0
lpc=PJgQQVLUYsHrWlJBDCl3wLgHAUAWICc/loMsQN9MqL8T2ZpA0ffkvoO7LUBW4AQ/73MXQDzgND+36eg/GtU/QEVGp7/WA4BAn2qUv8u1OcBZ4ClBgTwBwasdQ0DoHqM/
lpc_rms=-32.09
pitch_keycenter=d#6
sample=Soloviolin1_trill_dim5th_MF_D#6.opus
</region>

<region>
hikey=f4
hivel=127
lokey=e4
loop_end=263589
loop_mode=loop_continuous
loop_start=94751
loop_xfade=50651
lovel=0
lpc=U4oeQWsWx8Fc+eBBqUmNwRL54UBHXZrAIT6mQEnPbMAjW5k/6NK8P1xcT8BxnyBAEv/7vp8eDsBHIZBAsZSBwCAE5T8rbss+Pbo2v9BoNj9kgim/7yU4PkCjYT7m/YI9
lpc_rms=-32.63
pitch_keycenter=f4
sample=Soloviolin1_trill_dim5th_MF_F4.opus
</region>

<region>
hikey=f5
hivel=127
lokey=e5
loop_end=251657
loop_mode=loop_continuous
loop_start=90462
loop_xfade=48358
lovel=0
lpc=8yIxQN+HgcDF3UdAH5uFvxV5Bj9E1TG/GFtuP1Dv6b4H2Jq9egQOP2bd074Acug9g+rGPqZFtL6Np1E/Ft0uvy+jtT4lwkI+7hqQPWOjyb4jWE0/GgBZvoDZ/D2ZEfa8
lpc_rms=-36.07
pitch_keycenter=f5
sample=Soloviolin1_trill_dim5th_MF_F5.opus
</region>

<region>
hikey=f6
hivel=127
lokey=e6
loop_end=281498
loop_mode=loop_continuous
loop_start=113758
loop_xfade=60811
lovel=0
lpc=HYGXQJNmpMDn/XpAWrRBvQ0dUT9Eit8+HY75P3AKk75Oivw/nJADP+ZEmD9OlNw+PALSPrH50j9K/KM/y1+Cvw7fFUAfyTDAcolTQC38pb9G+yo/BVjhvmLQmT+8DYu/
lpc_rms=-38.34
pitch_keycenter=f6
sample=Soloviolin1_trill_dim5th_MF_F6.opus
</region>

<region>
hivel=127
key=g3
loop_end=259321
loop_mode=loop_continuous
loop_start=93217
loop_xfade=49831
lovel=0
lpc=7thMQbqVB8JW3xRCFCKXwbb9dz4LJF1A/O+2Pq/s7r/z1N8/UBYwPiDjkMAI/ZxAphCxPnCVmsBy8cBAeOmowG98YUB4QI2/DBxlPxEWAsCWeBs/gEEjQDorbMD6keM/
lpc_rms=-33.04
sample=Soloviolin1_trill_dim5th_MF_G3.opus
</region>

<region>
hikey=g4
hivel=127
lokey=f#4
loop_end=252071
loop_mode=loop_continuous
loop_start=90611
loop_xfade=48438
lovel=0
lpc=JdUPQYl7uMEUEdBB7vR/weAqxEDg34/AbPyvQDMOfcCfG48/S70WQGvmoMDHdoBAi9QrvwnxA8CM5mRAQcx1wGOLR0A4M+C/Z6IEPym8HD/lDMa/zW8LQIygDsAPDJ0/
lpc_rms=-31.80
pitch_keycenter=g4
sample=Soloviolin1_trill_dim5th_MF_G4.opus
</region>

<region>
hikey=g5
hivel=127
lokey=f#5
loop_end=260868
loop_mode=loop_continuous
loop_start=93773
loop_xfade=50128
lovel=0
lpc=2vBnQJJwtMAJgo5AFD6zv4U2eD5Wv0O/Fu/hP6/n77/dzsA/GuvEPe+6Pb7O0SQ+h9EaPnFtor5pbn4/bjrRvjs1kj4GOkC+QlMrvZwq4j6y18I9Znj+vgTUqT4w0Cy8
lpc_rms=-34.19
pitch_keycenter=g5
sample=Soloviolin1_trill_dim5th_MF_G5.opus
</region>

<region>
hikey=g6
hivel=127
lokey=f#6
loop_end=269829
loop_mode=loop_continuous
loop_start=113935
loop_xfade=60906
lovel=0
lpc=kR6PQKk9l8BGOI9AOw3fv7nxGkCwHmG/H8fdP038n70sBqs/6pjfPoy/pL7TCSC+CxaQPxw/Er+qSSE/lEtSwGwPS0A2/jrAUESzP+Fy1L/DTKc+dFohv9lxMr9JZ6a+
lpc_rms=-41.75
pitch_keycenter=g6
sample=Soloviolin1_trill_dim5th_MF_G6.opus
</region>
</group>

<group>
group_label=FF
lpc_hicc1=127
lpc_locc1=85

<region>
hikey=a3
hivel=127
lokey=g#3
loop_end=267866
loop_mode=loop_continuous
loop_start=96289
loop_xfade=51473
lovel=0
lpc=1ab7QHwOpMGCMsdBE7OLweHjz0BbpB2/TERmvprnVr+cVPw/+V3Fv9CNk78TyFxA+iQcwGT+8r5tYSlA5hR3wOQYfkCDvATAZKORv3vyTEAWx92/rgUpv0Vvkj8V44i+
lpc_rms=-26.96
pitch_keycenter=a3
sample=Soloviolin1_trill_dim5th_FF_A3.opus
</region>

<region>
hikey=a4
hivel=127
lokey=g#4
loop_end=260846
loop_mode=loop_continuous
loop_start=93765
loop_xfade=50124
lovel=0
lpc=jCeHQMIuBMFtlPBAFQqVwBq3NkAyTCLArSDxP80CsL9DKrQ/3z4cv7pfbLxUF74+j3M0v9Vrvr2MW7Y/JmCcvysLzT5LdZ++HHHCPpDPoT1y5AS+Z/rJvmzXnj7yki4+
lpc_rms=-27.48
pitch_keycenter=a4
sample=Soloviolin1_trill_dim5th_FF_A4.opus
</region>

<region>
hikey=a5
hivel=127
lokey=g#5
loop_end=258064
loop_mode=loop_continuous
loop_start=92765
loop_xfade=49589
lovel=0
lpc=t+CzQJq0A8G4Cd5AMSgtwJkCmD7CVGY/jUT5vgS63r7MG68/FpUxP6hnhb9S6QNAomegvhw9Ar7EGak/U3RMvaSIHD/Vepq/mY8GQMGSCMA9DNs/sEBBPmfRW7/HzNE/
lpc_rms=-22.80
pitch_keycenter=a5
sample=Soloviolin1_trill_dim5th_FF_A5.opus
</region>

<region>
hikey=a6
hivel=127
lokey=g#6
loop_end=278145
loop_mode=loop_continuous
loop_start=111017
loop_xfade=59346
lovel=0
lpc=BTT+QBmFksAoQpZAhpsZP7LohkDuVaA/C0GeP52RR0BM31JAqEe4Pt/nc793i1lAQiLfP5Jjt79SBSTAVYFSQNtSl78Ijba9YfWtv9DQVb9gYJg/dWf2v223Xb8jQhNA
lpc_rms=-24.89
pitch_keycenter=a6
sample=Soloviolin1_trill_dim5th_FF_A6.opus
</region>

<region>
hikey=b3
hivel=127
lokey=a#3
loop_end=272286
loop_mode=loop_continuous
loop_start=97878
loop_xfade=52322
lovel=0
lpc=NEcaQRiawMF5BNRBxQ96wYcEa0CFZkC/BKI8QJY/W8AkQMw/RKKQP5XKbcDV6nNADqvqv2fSir+P93ZA6zmFwN/lREAuufG/RK27P6oBOb8/pHe+EDzXvfZULD8/PHy+
lpc_rms=-23.48
pitch_keycenter=b3
sample=Soloviolin1_trill_dim5th_FF_B3.opus
</region>

<region>
hikey=b4
hivel=127
lokey=a#4
loop_end=271618
loop_mode=loop_continuous
loop_start=97637
loop_xfade=52194
lovel=0
lpc=5OydQE1SIMFdjhhBOEyswLMhDEBjfQ3Ay4wZQH2e6r+pssA/slqPvdIYxL8OyA5ApY/wv/gNqL1aucU/A3NQv5DL9L2h+ss+02JVPhBtkb5RDJs9GcmpvQKJUb7NTdc+
lpc_rms=-26.99
pitch_keycenter=b4
sample=Soloviolin1_trill_dim5th_FF_B4.opus
</region>

<region>
hikey=b5
hivel=127
lokey=a#5
loop_end=281372
loop_mode=loop_continuous
loop_start=106223
loop_xfade=56783
lovel=0
lpc=VB2SQM1/0cBpvs5Azug7wD2AdT+cFnA+uyfdPoMK0z2QbhU/hNZfP3XgdL6SnYA/0cG0vM5csj7aFmM/u8yIvhXedT/H2re/glMWQHrokb/NGPY+ZHhJP3sRAT6/c16+
lpc_rms=-26.06
pitch_keycenter=b5
sample=Soloviolin1_trill_dim5th_FF_B5.opus
</region>

<region>
hikey=b6
hivel=127
lokey=a#6
loop_end=263796
loop_mode=loop_continuous
loop_start=94826
loop_xfade=50691
lovel=0
lpc=la4MQfaAvMCFF2dAy29GQCDKdz8W2Jw/JDyDP2K0i0Dct6LA+MMTQBfhX0Cu+0S/hufJwAoajkCTTYY/NEJCwOFkkj90Jjy/RYTSP2P/VsBR5ahAXlufP6raR8A050NA
lpc_rms=-26.74
pitch_keycenter=B6
sample=Soloviolin1_trill_dim5th_FF_B6.opus
</region>

<region>
hikey=c#4
hivel=127
lokey=c4
loop_end=266757
loop_mode=loop_continuous
loop_start=95890
loop_xfade=51260
lovel=0
lpc=tKQcQR9xv8H6/sJBUDFOwaJ8WUCRraS/dV3rP5qo2r+7OiI/QW8EQCJ1qcC3DKBAbnDPv87kl7/7YDxA61VhwLQqZ0CuvFbA7GUQQCb+K79L8ho/VNONvwueEj5u3+Q+
lpc_rms=-22.47
pitch_keycenter=c#4
sample=Soloviolin1_trill_dim5th_FF_C#4.opus
</region>

<region>
hikey=c#5
hivel=127
lokey=c5
loop_end=260253
loop_mode=loop_continuous
loop_start=93552
loop_xfade=50010
lovel=0
lpc=r890QO8I4cBHtLpAh1JGwGBF/T+29+W/GIrGP/89k7/KtU8/SYSpPZduYr/qXms/YJ+fPh00e78vyZ4/41mEv1aPGj/nzwC/IhsKP+/zKr+8oWQ/pIlrvhE8uL6DJsc+
lpc_rms=-28.84
pitch_keycenter=c#5
sample=Soloviolin1_trill_dim5th_FF_C#5.opus
</region>

<region>
hikey=c#6
hivel=127
lokey=c6
loop_end=280035
loop_mode=loop_continuous
loop_start=107272
loop_xfade=57344
lovel=0
lpc=UgOiQONmncAwIHFA8NAnvwacPD92Tyg+mAu2P+RGFT9+vK6+GiUZQNbyXD5RgLc/7CjLPuxsrT8n3kI/vm6zvjR4Zj8Uz7M/+gCbvk5ikz8tsqY/CXXsv4IdlD9isHk/
lpc_rms=-26.31
pitch_keycenter=c#6
sample=Soloviolin1_trill_dim5th_FF_C#6.opus
</region>

<region>
hikey=d#4
hivel=127
lokey=d4
loop_end=269404
loop_mode=loop_continuous
loop_start=96842
loop_xfade=51768
lovel=0
lpc=VlXXQGzOgsFBZIpBjEgUwdN8AkDwrbe/72k+QBrJAsDHaqw+g2SPP322IcD7r0RACtkJwGBSEL9RXExACD1YwCRj0j/Sw2W84w+mPq2UWL9IuES9ZLKZP6S6ur+II00/
lpc_rms=-27.89
pitch_keycenter=d#4
sample=Soloviolin1_trill_dim5th_FF_D#4.opus
</region>

<region>
hikey=d#5
hivel=127
lokey=d5
loop_end=264964
loop_mode=loop_continuous
loop_start=95245
loop_xfade=50915
lovel=0
lpc=Im6BQPiT5MB5w8hAcTlJwIdooz9lTpu/s/rLP1IewL+Kmrs/B/5RvvNHHb7ZEmU/YvaUv/esRD8OpSc/o8Ysvynpez3lK5s+2SepPVDld72mD0o86HLivciHRj22Ps4+
lpc_rms=-28.05
pitch_keycenter=d#5
sample=Soloviolin1_trill_dim5th_FF_D#5.opus
</region>

<region>
hikey=d#6
hivel=127
lokey=d6
loop_end=282949
loop_mode=loop_continuous
loop_start=93512
loop_xfade=49989
lovel=0
lpc=wQ+9QAc18cC288FAMJEcv0M0/z4lduE/EHQNvOHTdz9o+dg/PjJ2P5iwEj8+WdM/BDV8P6aJVj/repM+VfQoQA5pGb+Fcuc/oT2JP4SETMBwFZpA+Sqfv3F3O78v7LI/
lpc_rms=-25.25
pitch_keycenter=d#6
sample=Soloviolin1_trill_dim5th_FF_D#6.opus
</region>

<region>
hikey=f4
hivel=127
lokey=e4
loop_end=278519
loop_mode=loop_continuous
loop_start=108335
loop_xfade=57912
lovel=0
lpc=eSPnQCfGh8F02I1BGkQfwTjdK0Dtbb2/wRLvP2sQM79JLLq+GsitP72lG8Ab9yFAcVDmv8bDtb57WzFAkttIwPtQEkD/DIK/gUseP2L2mb2PMo+/LW66P5k5nL8STjw/
lpc_rms=-27.13
pitch_keycenter=f4
sample=Soloviolin1_trill_dim5th_FF_F4.opus
</region>

<region>
hikey=f5
hivel=127
lokey=e5
loop_end=261681
loop_mode=loop_continuous
loop_start=94066
loop_xfade=50284
lovel=0
lpc=WxcsQMzfg8CLdmhAIw7ivxkJkj8RXW6/2omJP5rvar/HXhM/39aSPgF43b7FFhI/prFFvroROD5WNQw/9qgfv3894j6ulrw9cuxLPSlf+b6DDak/tfeRv4czLD/tXAe7
lpc_rms=-25.71
pitch_keycenter=f5
sample=Soloviolin1_trill_dim5th_FF_F5.opus
</region>

<region>
hikey=f6
hivel=127
lokey=e6
loop_end=266657
loop_mode=loop_continuous
loop_start=95854
loop_xfade=51240
lovel=0
lpc=7M2rQL6tq8CLrLdAI8UNv+22hD8M2DFA1ehpP89RjD+KxFBAeQJUP55VEEDvNwZAHaJQPijld0Dh9mo/OpqMP127LUAcggXA6ehjQO2WrLwZwrW9N1W/Px2F172ElrA+
lpc_rms=-24.62
pitch_keycenter=f6
sample=Soloviolin1_trill_dim5th_FF_F6.opus
</region>

<region>
hivel=127
key=g3
loop_end=265445
loop_mode=loop_continuous
loop_start=95419
loop_xfade=51007
lovel=0
lpc=DZYoQe941cEbZelBHxiBweZrF0AVW2a+op5zQCi0dcDugac/VyrxP53MkcDrDoRAxMfnv/2MyL+jGpJA3CiZwBQQUECHGqG/Q0OpP5Rn47/YqzE+WXuePzZXxb/jeG8/
lpc_rms=-23.48
sample=Soloviolin1_trill_dim5th_FF_G3.opus
</region>

<region>
hikey=g4
hivel=127
lokey=f#4
loop_end=272138
loop_mode=loop_continuous
loop_start=97825
loop_xfade=52293
lovel=0
lpc=c4oHQQFKqMHOkbZBvdJWwTcThkBO+gzAkbk9QFiWe7+hpJS/9v0XQD1kcMD2rFdARSLHvxDVkr8mwX1AkR+AwMUq+z/FBQK9ZFoOPQTffL+NHRc+MTTpP8bvF8BbVJ4/
lpc_rms=-24.31
pitch_keycenter=g4
sample=Soloviolin1_trill_dim5th_FF_G4.opus
</region>

<region>
hikey=g5
hivel=127
lokey=f#5
loop_end=270678
loop_mode=loop_continuous
loop_start=97300
loop_xfade=52013
lovel=0
lpc=71F5QMuIu8AEjJtAn2oBwEoTFT8mzTW/EApnPypEpb9axAFA4J82v0YqAD9WsTY+t8ioPe1shb48DiE/iwAFvt73670CETG+l5HwPqCGCL2N5qg+qYARv1gGMz9qd5O+
lpc_rms=-25.48
pitch_keycenter=g5
sample=Soloviolin1_trill_dim5th_FF_G5.opus
</region>

<region>
hikey=g6
hivel=127
lokey=f#6
loop_end=253823
loop_mode=loop_continuous
loop_start=91241
loop_xfade=48774
lovel=0
lpc=eb93QG9rLsBUYGJARr/XvkFGFUCuodm8LbsSQMnRZD6PTgVAj6LiP/nhED6ides+uBTVP7hA8zvy2Ig/93b0v3Q6B0ArF8y/sTCKP6CInr/KLuy94xQQvzFTLD6LjKq/
lpc_rms=-27.80
pitch_keycenter=g6
sample=Soloviolin1_trill_dim5th_FF_G6.opus
</region>
</group>